<svg width="212" height="42" viewBox="0 0 212 42" fill="none" xmlns="http://www.w3.org/2000/svg">
<g clip-path="url(#clip0_2408_2146)">
<path d="M64.3539 20.8733C64.3539 18.1064 62.2657 17.0002 57.5909 17.0002H54.4877C51.8244 17.0002 50.9817 16.4853 50.9817 15.321C50.9817 13.9666 52.2643 13.4122 54.6017 13.4122H64.3513V11.1416H55.1184C51.1539 11.1416 48.3184 12.1343 48.3184 15.3606C48.3184 18.146 50.0992 19.2549 55.0045 19.2549H58.3568C60.7313 19.2549 61.6137 19.7882 61.6137 20.934C61.6137 22.1353 60.6942 22.8033 58.2031 22.8033H48.3184V25.0738H57.5512C62.4565 25.0738 64.3513 23.4501 64.3513 20.8733H64.3539Z" fill="#1A539E"/>
<path d="M68.6448 22.5155H77.5728L78.5507 24.7861H81.4446L76.3353 13.1772C75.8662 12.1132 74.8115 11.4268 73.6454 11.4268H72.7285C71.5757 11.4268 70.529 12.1 70.0519 13.1455L64.7598 24.7861H67.6324L68.6474 22.5155H68.6448ZM72.4556 14.0194C72.5854 13.7316 72.8743 13.5442 73.1896 13.5442C73.5129 13.5442 73.8044 13.7369 73.929 14.03L76.6692 20.4139H69.5802L72.4503 14.0194H72.4556Z" fill="#1A539E"/>
<path d="M93.6429 24.7861H97.5888V11.4268H94.8301L94.9441 22.497L87.4947 12.4855C86.9992 11.8201 86.2174 11.4268 85.3853 11.4268C83.9357 11.4268 82.7617 12.5964 82.7617 14.0405V24.7861H85.5204L85.4065 13.7158L93.6429 24.7861Z" fill="#1A539E"/>
<path d="M111.451 11.4268H98.998V13.6207H103.845V24.7861H106.604V13.6207H111.451V11.4268Z" fill="#1A539E"/>
<path d="M120.724 11.1389H118.559C113.788 11.1389 111.682 12.7996 111.682 18.1037C111.682 23.4078 113.788 25.0685 118.559 25.0685H120.724C125.494 25.0685 127.601 23.4078 127.601 18.1037C127.601 12.7996 125.494 11.1389 120.724 11.1389ZM120.724 22.6475H118.559C115.302 22.6475 114.364 21.5016 114.364 18.1064C114.364 14.7111 115.302 13.5652 118.559 13.5652H120.724C123.999 13.5652 124.919 14.7111 124.919 18.1064C124.919 21.5016 123.999 22.6475 120.724 22.6475Z" fill="#1A539E"/>
<path d="M136.046 22.5155H144.974L145.952 24.7861H148.846L143.813 13.3541C143.299 12.1845 142.136 11.4268 140.853 11.4268H140.318C139.049 11.4268 137.899 12.166 137.374 13.3171L132.161 24.7861H135.034L136.049 22.5155H136.046ZM139.857 14.0194C139.987 13.7316 140.276 13.5442 140.591 13.5442C140.914 13.5442 141.206 13.7369 141.33 14.03L144.071 20.4139H136.982L139.852 14.0194H139.857Z" fill="#1A539E"/>
<path d="M164.698 11.4268H161.94L162.053 22.497L154.604 12.4855C154.109 11.8201 153.327 11.4268 152.495 11.4268C151.045 11.4268 149.871 12.5964 149.871 14.0405V24.7861H152.63L152.516 13.7158L160.752 24.7861H164.698V11.4268Z" fill="#1A539E"/>
<path d="M174.944 11.4268H169.281C167.659 11.4268 166.342 12.7363 166.342 14.3547V24.7861H174.944C179.656 24.7861 181.744 23.1254 181.744 18.1064C181.744 13.0874 179.656 11.4268 174.944 11.4268ZM174.809 22.3624H169.101V13.8504H174.809C177.952 13.8504 178.948 14.9382 178.948 18.1064C178.948 21.2746 177.952 22.3624 174.809 22.3624Z" fill="#1A539E"/>
<path d="M211.997 22.3624H201.786V19.1573H210.081V17.0583H201.786V13.8531H211.806V11.4294H202.26C200.474 11.4294 199.027 12.871 199.027 14.6505V24.7914H211.997V22.3677V22.3624Z" fill="#1A539E"/>
<path d="M185.989 20.6436H191.737L194.647 25.0422H197.541L194.509 20.5354C196.597 20.1922 197.541 18.975 197.541 16.0444C197.541 12.4934 196.141 11.4268 192.98 11.4268H186.461C184.674 11.4268 183.228 12.8683 183.228 14.6478V24.7887H185.986V20.6463L185.989 20.6436ZM185.989 13.7739H192.368C194.072 13.7739 194.782 14.3283 194.782 16.0444C194.782 17.7606 194.074 18.2965 192.368 18.2965H185.989V13.7739Z" fill="#1A539E"/>
<path d="M208.926 7.03613L203.864 8.79185V9.44398H208.926V7.03613Z" fill="#1A539E"/>
<path d="M53.0174 32.6671H52.0262C49.5193 32.6671 48.4062 33.5066 48.4062 36.3343C48.4062 39.1619 49.5193 39.9883 52.0262 39.9883H53.0174C55.3521 39.9883 56.6241 39.2702 56.6241 37.2478H55.4369C55.4369 38.4411 54.679 38.9771 53.0147 38.9771H52.1587C50.362 38.9771 49.665 38.391 49.5908 36.6617H56.6215V35.9911C56.6215 33.3958 55.3362 32.6644 53.0147 32.6644L53.0174 32.6671ZM49.5935 35.9937C49.6677 34.2644 50.3646 33.6677 52.1614 33.6677H52.8955C54.6074 33.6677 55.4395 34.2169 55.4395 35.9937H49.5935Z" fill="#1A539E"/>
<path d="M69.9771 32.667H69.7572C68.4242 32.667 67.0912 33.1792 66.5771 34.7633C66.3068 33.2161 65.4641 32.667 63.9853 32.667H63.7654C62.4801 32.667 61.2584 33.1422 60.7337 34.5547V32.8492H59.6445V39.806H60.8424V36.3342C60.8424 34.3488 61.9792 33.6914 63.3493 33.6914H63.6806C65.1116 33.6914 65.6363 34.325 65.6363 36.0174V39.806H66.8474V36.3342C66.8474 34.3488 67.9843 33.6914 69.3544 33.6914H69.6856C71.1034 33.6914 71.6414 34.325 71.6414 36.0174V39.806H72.8392V36.0174C72.8392 33.5066 71.9355 32.667 69.9771 32.667Z" fill="#1A539E"/>
<path d="M80.4691 32.667H80.2492C78.9294 32.667 77.7661 33.0815 77.191 34.2881V32.8756H75.9932V42H77.191V38.3803C77.7661 39.5869 78.9268 40.0014 80.2492 40.0014H80.4691C82.5971 40.0014 83.7711 39.1618 83.7711 36.3342C83.7711 33.5066 82.5971 32.667 80.4691 32.667ZM80.2253 38.9665H79.7722C78.1821 38.9665 77.191 38.2959 77.191 36.3342C77.191 34.3725 78.1821 33.6914 79.7722 33.6914H80.2253C81.8763 33.6914 82.5971 34.3725 82.5971 36.3342C82.5971 38.2959 81.8763 38.9665 80.2253 38.9665Z" fill="#1A539E"/>
<path d="M91.17 32.7647H90.8149C89.5933 32.7647 88.4193 33.2268 87.8919 34.6287V32.8492H86.8027V39.8061H88.0006V36.4319C88.0006 34.4703 88.9784 33.7997 90.5208 33.7997H90.8017C92.1214 33.7997 92.8078 34.4703 92.8078 35.8458H94.0189C94.0189 33.6043 92.821 32.7621 91.17 32.7621V32.7647Z" fill="#1A539E"/>
<path d="M101.099 32.6671H100.108C97.6013 32.6671 96.4883 33.5066 96.4883 36.3343C96.4883 39.1619 97.6013 39.9883 100.108 39.9883H101.099C103.434 39.9883 104.706 39.2702 104.706 37.2478H103.519C103.519 38.4411 102.761 38.9771 101.097 38.9771H100.241C98.444 38.9771 97.7471 38.391 97.6729 36.6617H104.703V35.9911C104.703 33.3958 103.418 32.6644 101.097 32.6644L101.099 32.6671ZM97.6755 35.9937C97.7497 34.2644 98.4467 33.6677 100.243 33.6677H100.977C102.689 33.6677 103.522 34.2169 103.522 35.9937H97.6755Z" fill="#1A539E"/>
<path d="M112.214 32.6671H111.223C108.716 32.6671 107.603 33.5066 107.603 36.3343C107.603 39.1619 108.716 39.9883 111.223 39.9883H112.214C114.548 39.9883 115.82 39.2702 115.82 37.2478H114.633C114.633 38.4411 113.875 38.9771 112.211 38.9771H111.355C109.558 38.9771 108.861 38.391 108.787 36.6617H115.818V35.9911C115.818 33.3958 114.532 32.6644 112.211 32.6644L112.214 32.6671ZM108.79 35.9937C108.864 34.2644 109.561 33.6677 111.358 33.6677H112.092C113.804 33.6677 114.636 34.2169 114.636 35.9937H108.79Z" fill="#1A539E"/>
<path d="M123.477 32.667H123.257C121.741 32.667 120.469 33.1422 119.931 34.5679V32.8492H118.842V39.806H120.04V36.3342C120.04 34.3488 121.129 33.6914 122.729 33.6914H123.244C124.969 33.6914 125.446 34.325 125.446 36.0174V39.806H126.644V36.0174C126.644 33.5066 125.74 32.667 123.477 32.667Z" fill="#1A539E"/>
<path d="M136.256 34.288C135.681 33.0815 134.52 32.667 133.198 32.667H132.978C130.85 32.667 129.676 33.5065 129.676 36.3342C129.676 39.1618 130.85 40.0014 132.978 40.0014H133.198C134.517 40.0014 135.681 39.5869 136.256 38.3803V39.806H137.454V30.6683H136.256V34.288ZM133.675 38.9664H133.222C131.584 38.9664 130.85 38.2958 130.85 36.3342C130.85 34.3725 131.584 33.6913 133.222 33.6913H133.675C135.278 33.6913 136.256 34.3725 136.256 36.3342C136.256 38.2958 135.278 38.9664 133.675 38.9664Z" fill="#1A539E"/>
<path d="M141.807 32.8491H140.609V39.806H141.807V32.8491Z" fill="#1A539E"/>
<path d="M141.317 30.4492H141.097C140.583 30.4492 140.353 30.6314 140.353 31.1436C140.353 31.6558 140.586 31.838 141.097 31.838H141.317C141.831 31.838 142.051 31.6558 142.051 31.1436C142.051 30.6314 141.831 30.4492 141.317 30.4492Z" fill="#1A539E"/>
<path d="M155.296 32.667H155.077C153.744 32.667 152.411 33.1792 151.896 34.7633C151.626 33.2161 150.783 32.667 149.305 32.667H149.085C147.799 32.667 146.578 33.1422 146.053 34.5547V32.8492H144.964V39.806H146.162V36.3342C146.162 34.3488 147.299 33.6914 148.669 33.6914H149C150.431 33.6914 150.956 34.325 150.956 36.0174V39.806H152.167V36.3342C152.167 34.3488 153.304 33.6914 154.674 33.6914H155.005C156.423 33.6914 156.961 34.325 156.961 36.0174V39.806H158.159V36.0174C158.159 33.5066 157.255 32.667 155.296 32.667Z" fill="#1A539E"/>
<path d="M165.802 32.6671H164.81C162.303 32.6671 161.19 33.5066 161.19 36.3343C161.19 39.1619 162.303 39.9883 164.81 39.9883H165.802C168.136 39.9883 169.408 39.2702 169.408 37.2478H168.221C168.221 38.4411 167.463 38.9771 165.799 38.9771H164.943C163.146 38.9771 162.449 38.391 162.375 36.6617H169.406V35.9911C169.406 33.3958 168.12 32.6644 165.799 32.6644L165.802 32.6671ZM162.378 35.9937C162.452 34.2644 163.149 33.6677 164.946 33.6677H165.68C167.392 33.6677 168.224 34.2169 168.224 35.9937H162.378Z" fill="#1A539E"/>
<path d="M177.061 32.667H176.841C175.325 32.667 174.053 33.1422 173.515 34.5679V32.8492H172.426V39.806H173.624V36.3342C173.624 34.3488 174.713 33.6914 176.313 33.6914H176.828C178.553 33.6914 179.03 34.325 179.03 36.0174V39.806H180.228V36.0174C180.228 33.5066 179.324 32.667 177.061 32.667Z" fill="#1A539E"/>
<path d="M187.018 38.9797H186.92C185.891 38.9797 185.157 38.4912 185.157 37.2371V33.7521H189.768V32.8518H185.157V31.2809H183.946V32.8518H182.955V33.7521H183.946V37.2371C183.946 39.307 185.157 39.9908 186.845 39.9908H187.004C188.767 39.9908 189.927 39.0773 189.927 37.4457H188.753C188.753 38.4331 188.033 38.9797 187.018 38.9797Z" fill="#1A539E"/>
<path d="M197.215 32.667H196.224C193.717 32.667 192.604 33.5066 192.604 36.3342C192.604 39.1618 193.717 39.9882 196.224 39.9882H197.215C199.722 39.9882 200.835 39.1592 200.835 36.3342C200.835 33.5092 199.722 32.667 197.215 32.667ZM197.079 38.9533H196.359C194.451 38.9533 193.777 38.2959 193.777 36.3342C193.777 34.3725 194.451 33.7019 196.359 33.7019H197.079C198.988 33.7019 199.661 34.3725 199.661 36.3342C199.661 38.2959 198.988 38.9533 197.079 38.9533Z" fill="#1A539E"/>
<path d="M208.65 35.8484H206.792C205.666 35.8484 205.067 35.5316 205.067 34.8134C205.067 34.0953 205.605 33.5594 207.158 33.5594H208.626C210.23 33.5594 210.693 34.1191 210.693 34.9481H211.881C211.881 33.3033 210.913 32.6089 208.518 32.6089H207.259C204.924 32.6089 203.883 33.4009 203.883 34.8134C203.883 36.3368 204.996 36.7513 206.904 36.7513H208.714C209.935 36.7513 210.828 36.9335 210.828 37.7863C210.828 38.5546 210.108 39.0404 208.626 39.0404H207.012C205.557 39.0404 204.861 38.6127 204.861 37.5302H203.687C203.687 39.3704 204.884 39.9908 207.134 39.9908H208.565C210.839 39.9908 212.002 39.1381 212.002 37.7361C212.002 36.0781 210.646 35.8484 208.653 35.8484H208.65Z" fill="#1A539E"/>
<path d="M35.6194 21.7894L36.5045 19.1862C36.9392 17.9031 37.1353 16.5513 37.077 15.1995L36.9206 11.432C36.8385 9.43865 36.4621 7.46643 35.8102 5.5787L33.9631 0.250817C33.9101 0.100327 33.7697 0 33.608 0C33.4305 0 33.2794 0.121448 33.2423 0.2957L31.7874 8.1872L30.9023 12.7732C30.7327 13.6577 30.6452 14.5553 30.6452 15.4556V17.6443L29.5985 18.8298C29.3441 19.2152 29.1824 19.6535 29.1294 20.1129L28.875 22.3227L30.8201 23.7933L32.5983 23.3577L35.6168 21.7868L35.6194 21.7894Z" fill="#1A539E"/>
<path d="M38.4522 24.4481L37.3047 22.9749C37.3047 21.2165 35.8737 19.7908 34.1087 19.7908C33.0991 19.7908 32.1981 20.2608 31.6124 20.9895L30.6266 21.7499L29.5851 21.0872C29.2989 20.8337 29.0365 20.5591 28.798 20.2608L28.2839 19.6166C27.9659 19.2179 27.579 18.8773 27.1444 18.6107L23.7284 16.5117C23.4714 16.3533 23.1958 16.2213 22.9122 16.1183L0.543008 8.06051C0.437006 8.02355 0.320403 8.03147 0.2197 8.09219C-0.108908 8.28757 -0.0585567 8.62023 0.291252 8.77072L5.77159 11.1522C6.49771 11.4663 7.15227 11.9257 7.69554 12.4987L7.99764 12.8155C8.82977 13.692 9.77849 14.4498 10.82 15.0702L17.6068 19.115L24.5023 24.3848C24.6719 24.5141 24.709 24.7517 24.5871 24.9286L23.6224 26.32C23.1746 26.9642 22.5624 27.479 21.8495 27.8091L18.2322 29.4856C17.5246 29.813 16.7932 30.0875 16.0459 30.304L7.58423 32.7673C7.48088 32.7964 7.40933 32.8914 7.40933 32.9997V33.0102C7.40933 33.1686 7.55773 33.2848 7.71144 33.2452L18.1023 30.7053C18.1739 30.6869 18.2481 30.6921 18.317 30.7133L18.6509 30.8242C19.014 30.9456 19.3161 31.2017 19.4936 31.5423L19.5387 31.6268C19.6261 31.7931 19.5758 31.999 19.4274 32.1126C14.7527 35.6161 11.7395 38.9427 11.1671 39.5896C11.1062 39.6582 11.0903 39.7559 11.1247 39.8404C11.191 40.0093 11.4109 40.0463 11.5328 39.9143C13.9921 37.2213 17.6147 34.5362 19.4592 33.2399C20.1747 32.7356 20.9326 32.2921 21.7223 31.9172L23.9457 30.8585C24.7938 30.4545 25.7001 30.1773 26.6303 30.0347L29.8898 29.5384C31.986 29.5384 33.7377 28.0968 34.2174 26.159C35.1264 26.1299 35.9373 25.726 36.5018 25.095H38.2111C38.5503 25.095 38.7093 24.6805 38.4602 24.4534L38.4522 24.4481Z" fill="#189CD9"/>
</g>
<defs>
<clipPath id="clip0_2408_2146">
<rect width="212" height="42" fill="white"/>
</clipPath>
</defs>
</svg>
