<svg width="132" height="20" viewBox="0 0 132 20" fill="none" xmlns="http://www.w3.org/2000/svg">
<path d="M74.8239 1.24732e-05H73.3852V11.5305C73.3814 12.5922 72.5217 13.4519 71.46 13.4556H69.5417C68.48 13.4519 67.6203 12.5921 67.6165 11.5305V7.68356C67.6222 6.62378 68.4819 5.76711 69.5417 5.76524H71.9396C72.205 5.76336 72.4192 5.54766 72.4192 5.28224V3.84007H69.5417C67.4233 3.84761 65.7088 5.56509 65.7051 7.68356V11.5305C65.7088 13.6489 67.4233 15.3664 69.5417 15.374H71.46C73.5823 15.3702 75.3028 13.6527 75.3103 11.5305L75.3104 0.479592C75.3085 0.212834 75.0907 -0.0018845 74.8239 1.24732e-05Z" fill="white"/>
<path d="M128.14 3.83988H124.299V5.28205C124.299 5.5462 124.512 5.76133 124.776 5.76505L128.143 5.76505C128.944 5.76445 129.661 6.26161 129.941 7.01196L125.656 7.72447C123.669 8.02944 122.252 9.81274 122.404 11.8172C122.555 13.8216 124.225 15.3713 126.235 15.3738H128.16C130.28 15.3719 131.998 13.6537 132 11.5337V7.68337C132 6.661 131.593 5.68079 130.868 4.95951C130.144 4.23825 129.162 3.83533 128.14 3.83988ZM130.065 11.5337C130.061 12.5935 129.203 13.4517 128.143 13.4554L126.235 13.4555C125.279 13.4581 124.466 12.7593 124.326 11.8142C124.185 10.869 124.758 9.96359 125.673 9.68733L130.082 8.96111L130.065 11.5337Z" fill="white"/>
<path d="M91.157 13.4556H90.674C89.6148 13.4519 88.7576 12.5931 88.7557 11.5339V0.479579C88.7538 0.214161 88.5381 -7.9868e-06 88.2727 2.23388e-10H86.8408V11.5339C86.8427 13.6499 88.5546 15.3664 90.6706 15.3739H91.1673C91.4303 15.3721 91.6419 15.1573 91.64 14.8944V13.9352C91.641 13.8071 91.5903 13.6841 91.4994 13.5938C91.4085 13.5036 91.2851 13.4538 91.157 13.4556Z" fill="white"/>
<path d="M82.045 3.83984H80.1164C77.9972 3.8455 76.2817 5.56408 76.2798 7.68333V11.5337C76.2798 13.6558 78.0011 15.3756 80.1233 15.3737H83.9633V13.935C83.9633 13.6701 83.7486 13.4554 83.4837 13.4554H80.1164C79.3134 13.4524 78.5966 12.9513 78.318 12.1982L82.6068 11.4891C84.5906 11.1848 86.0071 9.40655 85.8601 7.40492C85.7131 5.4033 84.052 3.85104 82.045 3.83984ZM82.6068 9.52629L78.2015 10.2525V7.68333C78.2015 6.62521 79.0583 5.7669 80.1164 5.76501H82.045C83.0081 5.75013 83.8334 6.45049 83.9754 7.40314C84.1175 8.3558 83.5323 9.26645 82.6068 9.53314V9.52629Z" fill="white"/>
<path d="M16.7091 3.75781H14.7907C12.6717 3.76534 10.9563 5.48228 10.9507 7.6013V11.4516C10.9563 13.5707 12.6717 15.2876 14.7907 15.2951H17.6716V13.853C17.6716 13.5875 17.4575 13.3718 17.192 13.37H14.7942C13.7357 13.3662 12.8781 12.5101 12.8724 11.4516V7.6013C12.8762 6.54151 13.7344 5.68331 14.7942 5.67956H16.7125C17.7728 5.6833 18.632 6.54096 18.6377 7.6013V15.2951C18.6358 16.3532 17.7775 17.21 16.7193 17.21H13.3486C13.0839 17.2137 12.8708 17.4284 12.869 17.693V18.6522C12.869 18.9176 13.0832 19.1333 13.3486 19.1352H16.7091C17.7278 19.1361 18.705 18.7318 19.4254 18.0115C20.1457 17.2911 20.55 16.3138 20.5491 15.2951V7.6013C20.5435 5.48228 18.8281 3.76534 16.7091 3.75781Z" fill="white"/>
<path d="M60.9022 3.75781H57.0621V5.19998C57.0612 5.32805 57.1119 5.4511 57.2027 5.54134C57.2936 5.63158 57.417 5.6814 57.5451 5.67956L60.909 5.67956C61.7118 5.68002 62.4293 6.18027 62.7074 6.93331L58.4083 7.64583C56.4245 7.95012 55.008 9.72841 55.155 11.73C55.302 13.7317 56.9631 15.2839 58.9701 15.2951L60.8987 15.2951C63.018 15.2895 64.7335 13.5709 64.7354 11.4516V7.6013C64.7372 5.48183 63.0216 3.76159 60.9022 3.75781ZM62.8307 11.4516C62.827 12.5109 61.9682 13.3681 60.909 13.3699L58.9804 13.37C58.0173 13.3848 57.192 12.6845 57.05 11.7318C56.9079 10.7792 57.4931 9.86852 58.4186 9.60183L62.8307 8.87218V11.4516Z" fill="white"/>
<path d="M53.6985 0.853528H52.7394C52.6116 0.853528 52.4891 0.904527 52.399 0.99521C52.309 1.08589 52.2589 1.20875 52.2598 1.33653V2.77527H53.6985C53.9639 2.77339 54.1781 2.55769 54.1781 2.29227V1.33653C54.1799 1.20847 54.1301 1.08506 54.0399 0.994179C53.9496 0.903294 53.8266 0.852594 53.6985 0.853528Z" fill="white"/>
<path d="M53.6985 3.7334H52.2598V14.7809C52.2598 15.0457 52.4745 15.2604 52.7393 15.2604L53.6985 15.2604C53.9634 15.2604 54.1781 15.0457 54.1781 14.7809V4.2164C54.1781 3.95097 53.9639 3.73527 53.6985 3.7334Z" fill="white"/>
<path d="M27.2769 3.75782H25.3518C23.2325 3.76348 21.517 5.48206 21.5151 7.60131V11.4516C21.5151 13.5743 23.2359 15.2951 25.3586 15.2951H29.2021V13.853C29.2021 13.5875 28.9879 13.3718 28.7225 13.37L25.3518 13.37C24.5515 13.3702 23.8361 12.8709 23.5602 12.1196L27.8456 11.4105C29.8411 11.1165 31.2706 9.33113 31.1211 7.31966C30.9716 5.30819 29.294 3.75372 27.2769 3.75782ZM27.8456 9.44084L23.4369 10.1705V7.60131C23.4387 6.5434 24.2939 5.68521 25.3518 5.67956H27.2769C28.2338 5.67351 29.0499 6.37121 29.1927 7.31742C29.3355 8.26363 28.7617 9.17109 27.8456 9.44769V9.44084Z" fill="white"/>
<path d="M6.14471 3.75781H2.30122V5.19998C2.30122 5.46484 2.51594 5.67956 2.7808 5.67956H6.14814C6.95058 5.67844 7.66797 6.17952 7.94313 6.93331L3.65432 7.64583C1.6699 7.95027 0.253281 9.72956 0.401225 11.7317C0.549168 13.7339 2.21193 15.2857 4.21954 15.2951L6.14814 15.2951C8.26715 15.2876 9.98256 13.5707 9.98819 11.4516L9.9882 7.6013C9.9882 5.4786 8.26741 3.75781 6.14471 3.75781ZM8.05275 11.4516C8.04899 12.5095 7.19233 13.3662 6.13443 13.3699L4.21954 13.37C3.25577 13.3867 2.42872 12.6868 2.28573 11.7336C2.14275 10.7803 2.72806 9.86862 3.65432 9.60183L8.05275 8.88246V11.4516Z" fill="white"/>
<path d="M29.1988 2.29225V1.33652C29.2007 1.07165 28.9875 0.855402 28.7226 0.853516L23.9269 0.853516C23.6601 0.853516 23.4438 1.06976 23.4438 1.33652V2.77526H28.7226C28.9875 2.77337 29.2007 2.55712 29.1988 2.29225Z" fill="white"/>
<path d="M37.8551 3.84672H35.9402C34.9185 3.84216 33.937 4.24462 33.2126 4.96517C32.4882 5.68571 32.0805 6.66504 32.0796 7.68678V14.8805C32.0815 15.1459 32.2972 15.3601 32.5626 15.3601L33.5252 15.3601C33.7892 15.3582 34.0029 15.1446 34.0048 14.8805V7.68678C34.0066 6.62621 34.8659 5.76692 35.9265 5.76504H37.8551C38.9157 5.76692 39.7749 6.62621 39.7768 7.68678V14.8805C39.7787 15.1446 39.9923 15.3582 40.2564 15.3601L41.702 15.3601V7.68678C41.7001 5.56408 39.9778 3.84483 37.8551 3.84672Z" fill="white"/>
<path d="M101.718 3.84668H100.759C100.493 3.84668 100.278 4.06086 100.276 4.32627V11.52C100.276 12.58 99.4175 13.4398 98.3575 13.4417H96.4323C95.371 13.4417 94.5106 12.5813 94.5106 11.52V4.32626C94.5087 4.06217 94.2951 3.84855 94.031 3.84668H92.5957V11.5337C92.5976 13.6523 94.3137 15.3699 96.4323 15.3737H98.3472C100.469 15.3756 102.191 13.6558 102.191 11.5337V4.33996C102.196 4.07318 101.985 3.85229 101.718 3.84668Z" fill="white"/>
<path d="M42.6509 7.6013V11.4516C42.6528 13.5749 44.3745 15.2951 46.4978 15.2951L50.8174 15.2951C51.0823 15.2932 51.2955 15.077 51.2936 14.8121V13.853C51.2955 13.5881 51.0823 13.3718 50.8174 13.37H46.4909C45.433 13.3662 44.5764 12.5095 44.5726 11.4516L44.5726 7.6013C44.5745 6.54206 45.4317 5.68332 46.4909 5.67956H50.8174C50.9443 5.67956 51.0659 5.62892 51.1553 5.53888C51.2448 5.44885 51.2945 5.32685 51.2936 5.19998V3.75781H46.4978C44.3737 3.75592 42.6509 5.47726 42.6509 7.6013Z" fill="white"/>
<path d="M103.167 7.6013V11.4516C103.167 13.5757 104.89 15.297 107.014 15.2951H111.33C111.596 15.2933 111.81 15.0775 111.81 14.8121L111.81 13.853C111.811 13.7252 111.76 13.6023 111.67 13.5116C111.58 13.421 111.458 13.37 111.33 13.37H107.007C105.948 13.3681 105.091 12.5103 105.089 11.4516V7.6013C105.089 6.54129 105.947 5.68145 107.007 5.67956H111.33C111.458 5.68048 111.58 5.63025 111.67 5.54011C111.76 5.44997 111.811 5.32745 111.81 5.19998V3.75782H107.014C105.994 3.756 105.015 4.16024 104.293 4.88133C103.571 5.60242 103.166 6.58108 103.167 7.6013Z" fill="white"/>
<path d="M112.772 7.6013V11.4516C112.772 13.5757 114.495 15.297 116.619 15.2951H120.936C121.2 15.2932 121.414 15.077 121.412 14.8121V13.853C121.414 13.5881 121.2 13.3718 120.936 13.37H116.613C115.553 13.37 114.694 12.5111 114.694 11.4516V7.6013C114.694 6.54128 115.553 5.68144 116.613 5.67956H120.936C121.062 5.67956 121.184 5.62892 121.274 5.53888C121.363 5.44885 121.413 5.32685 121.412 5.19998V3.75781H116.616C115.596 3.7569 114.618 4.16155 113.897 4.88254C113.176 5.60353 112.772 6.58166 112.772 7.6013Z" fill="white"/>
</svg>
