<svg xmlns="http://www.w3.org/2000/svg" width="53" height="54" viewBox="0 0 53 54" fill="none">
  <g clip-path="url(#clip0_2624_1980)">
    <path d="M47.4604 19.3347C44.8825 17.8057 41.506 16.5999 37.6977 15.7976C36.8954 11.9921 35.6896 8.6175 34.1615 6.0405C32.0448 2.46748 29.3241 0.5 26.5005 0.5C23.6768 0.5 20.9562 2.46748 18.8375 6.03861C17.3095 8.61561 16.1036 11.9911 15.3013 15.7966C11.493 16.5989 8.11656 17.8047 5.53861 19.3337C1.96653 21.4552 0 24.1768 0 26.9995C0 29.156 1.12643 31.2501 3.25645 33.055C5.92511 35.3155 10.1785 37.1327 15.3032 38.2119C16.1055 42.0136 17.3104 45.3853 18.8375 47.9595C20.9552 51.5316 23.6768 53.4981 26.5005 53.4981C28.6569 53.4981 30.7511 52.3717 32.556 50.2417C34.8174 47.573 36.6336 43.3186 37.7138 38.193C41.5155 37.3907 44.8863 36.1858 47.4604 34.6587C51.0325 32.541 52.9991 29.8194 52.9991 26.9957C52.9991 24.1721 51.0316 21.4515 47.4604 19.3328V19.3347ZM26.6715 36.474L28.5984 34.5472C29.154 33.9915 29.154 33.0872 28.5984 32.5315C28.0427 31.9759 27.1383 31.9759 26.5827 32.5315L22.2215 36.8927C21.9881 37.1251 21.8464 37.4247 21.8124 37.7469C21.8124 37.7498 21.8124 37.7526 21.8114 37.7555C21.8067 37.8036 21.8039 37.8518 21.8039 37.901C21.8039 38.2818 21.9522 38.64 22.2215 38.9083L26.5827 43.2695C26.852 43.5388 27.2092 43.6872 27.5901 43.6872C27.9709 43.6872 28.329 43.5388 28.5984 43.2695C29.154 42.7138 29.154 41.8095 28.5984 41.2538L26.6687 39.3241C29.4101 39.3156 32.1081 39.1144 34.669 38.7373C33.6768 42.8877 32.1808 46.2727 30.3787 48.3999C29.1162 49.8911 27.8112 50.648 26.4995 50.648C24.671 50.648 22.918 49.2551 21.2888 46.507C18.6173 42.0023 17.0231 34.7107 17.0231 27.0014C17.0231 23.9652 17.2717 20.995 17.7347 18.2338C20.496 17.7707 23.4652 17.5231 26.4995 17.5231C29.5339 17.5231 32.504 17.7717 35.2653 18.2338C35.7198 20.9431 35.9665 23.8527 35.9759 26.8285L34.0491 24.9016C33.7798 24.6323 33.4226 24.4849 33.0408 24.4849C32.659 24.4849 32.3018 24.6333 32.0334 24.9016C31.7641 25.171 31.6157 25.5282 31.6157 25.909C31.6157 26.2898 31.7641 26.648 32.0334 26.9164L36.3917 31.2747C36.4257 31.3087 36.4617 31.3418 36.4985 31.372C36.508 31.3796 36.5184 31.3862 36.5288 31.3947C36.5552 31.4155 36.5807 31.4353 36.6091 31.4542C36.6327 31.4703 36.6582 31.4845 36.6828 31.4996C36.697 31.5081 36.7111 31.5175 36.7263 31.5261C36.7518 31.5402 36.7792 31.5525 36.8056 31.5648C36.8208 31.5724 36.8359 31.5799 36.8519 31.5865C36.8746 31.596 36.8973 31.6035 36.92 31.612C36.9417 31.6196 36.9625 31.6281 36.9842 31.6347C36.9984 31.6395 37.0135 31.6423 37.0277 31.6461C37.1477 31.6791 37.2725 31.698 37.4019 31.698C37.4964 31.698 37.589 31.6886 37.6788 31.6706C37.6798 31.6706 37.6816 31.6706 37.6826 31.6706C37.7119 31.665 37.7402 31.6565 37.7695 31.6489C37.7865 31.6442 37.8045 31.6404 37.8215 31.6357C37.8395 31.63 37.8574 31.6224 37.8754 31.6168C37.9018 31.6073 37.9283 31.5988 37.9548 31.5875C37.9651 31.5828 37.9755 31.5771 37.9859 31.5724C38.0181 31.5582 38.0502 31.5431 38.0804 31.527C38.088 31.5232 38.0946 31.5185 38.1012 31.5147C38.1343 31.4958 38.1664 31.4769 38.1976 31.4561C38.2099 31.4476 38.2222 31.4382 38.2335 31.4287C38.2581 31.4108 38.2836 31.3938 38.3072 31.3739C38.3431 31.3437 38.3781 31.3125 38.4121 31.2785L42.7714 26.9192C43.327 26.3635 43.327 25.4592 42.7714 24.9035C42.2157 24.3479 41.3114 24.3479 40.7557 24.9035L38.826 26.8332C38.8175 24.0937 38.6162 21.3967 38.2401 18.8367C41.266 19.5596 43.9318 20.5613 46.0061 21.7907C48.7541 23.4199 50.148 25.1729 50.148 27.0014C50.148 28.83 48.7551 30.5829 46.0061 32.2121C41.5353 34.8638 34.3175 36.4533 26.6725 36.4769L26.6715 36.474ZM26.4995 14.6702C23.7023 14.6702 20.9477 14.8734 18.3357 15.257C19.0586 12.233 20.0594 9.56911 21.2888 7.49579C22.918 4.74775 24.671 3.35483 26.4995 3.35483C28.3281 3.35483 30.0811 4.74775 31.7102 7.49579C32.9397 9.56911 33.9404 12.234 34.6633 15.257C32.0514 14.8734 29.2967 14.6702 26.4995 14.6702ZM14.1721 26.9995C14.1721 29.7986 14.3753 32.5551 14.7599 35.1681C10.6104 34.1758 7.22543 32.6799 5.09919 30.8778C3.60799 29.6153 2.85105 28.3102 2.85105 26.9986C2.85105 25.171 4.24397 23.4171 6.99201 21.7879C9.06627 20.5575 11.733 19.5568 14.758 18.8338C14.3743 21.4458 14.1711 24.2014 14.1711 26.9995H14.1721Z" fill="black"/>
  </g>
  <defs>
    <clipPath id="clip0_2624_1980">
      <rect width="53" height="53" fill="white" transform="translate(0 0.5)"/>
    </clipPath>
  </defs>
</svg>