<svg width="68" height="68" viewBox="0 0 68 68" fill="none" xmlns="http://www.w3.org/2000/svg">
<g clip-path="url(#clip0_2281_3110)">
<path fill-rule="evenodd" clip-rule="evenodd" d="M31.7532 48.1672L36.4184 52.8324C36.971 53.385 36.971 54.2825 36.4184 54.8351C35.8658 55.3877 34.9683 55.3877 34.4157 54.8351L28.7485 49.1679C28.1945 48.6153 28.1945 47.7178 28.7485 47.1652L34.4157 41.4979C34.9683 40.9453 35.8658 40.9453 36.4184 41.4979C36.971 42.0506 36.971 42.948 36.4184 43.5006L31.7532 48.1658V48.1672Z" fill="white"/>
<path fill-rule="evenodd" clip-rule="evenodd" d="M48.1677 36.2462L52.8329 31.581C53.3855 31.0284 54.283 31.0284 54.8356 31.581C55.3882 32.1336 55.3882 33.031 54.8356 33.5836L49.1683 39.2509C48.6157 39.8048 47.7183 39.8048 47.1657 39.2509L41.4984 33.5836C40.9458 33.031 40.9458 32.1336 41.4984 31.581C42.051 31.0284 42.9485 31.0284 43.5011 31.581L48.1663 36.2462H48.1677Z" fill="white"/>
<path fill-rule="evenodd" clip-rule="evenodd" d="M21.2691 45.6011C14.6433 44.3465 9.19466 42.1578 5.90891 39.3731C3.99042 37.7492 2.83362 35.9502 2.83362 33.9991C2.83362 31.2864 5.00058 28.8859 8.42889 26.8533C14.1966 23.4332 23.5094 21.2485 33.9993 21.2485C44.4893 21.2485 53.8034 23.4332 59.5698 26.8533C62.9981 28.8859 65.165 31.2864 65.165 33.9991C65.165 36.7119 62.9981 39.1124 59.5698 41.145C53.802 44.5651 44.4893 46.7497 33.9993 46.7497H29.7496C28.9675 46.7497 28.3334 47.3838 28.3334 48.1659C28.3334 48.9479 28.9675 49.582 29.7496 49.582H33.9993C45.0894 49.582 54.9195 47.1964 61.0158 43.5808C65.495 40.925 68 37.5415 68 33.9978C68 30.4541 65.495 27.0719 61.0158 24.4148C54.9195 20.7991 45.0894 18.4136 33.9993 18.4136C22.9093 18.4136 13.0792 20.7991 6.98289 24.4148C2.50504 27.0733 0 30.4568 0 34.0005C0 36.6997 1.42428 39.2889 4.07731 41.5373C7.64818 44.5624 13.5394 47.0213 20.7409 48.3858C21.5094 48.5311 22.2507 48.026 22.3974 47.2575C22.5413 46.489 22.0362 45.7477 21.2677 45.6011H21.2691Z" fill="white"/>
<path fill-rule="evenodd" clip-rule="evenodd" d="M45.6008 46.7323C44.3462 53.3581 42.1576 58.8067 39.3728 62.0924C37.749 64.0109 35.9499 65.1677 33.9989 65.1677C31.2861 65.1677 28.8856 63.0008 26.8531 59.5725C23.4329 53.8048 21.2483 44.492 21.2483 34.002C21.2483 23.5121 23.4329 14.198 26.8531 8.4316C28.8856 5.00329 31.2861 2.83633 33.9989 2.83633C36.7116 2.83633 39.1121 5.00329 41.1447 8.4316C44.5648 14.1993 46.7495 23.5121 46.7495 34.002V38.2518C46.7495 39.0338 47.3835 39.6679 48.1656 39.6679C48.9477 39.6679 49.5817 39.0338 49.5817 38.2518V34.002C49.5817 22.912 47.1962 13.0819 43.5805 6.9856C40.9261 2.50504 37.5426 0 34.0002 0C30.4579 0 27.0744 2.50504 24.4173 6.98425C20.8016 13.0805 18.416 22.9106 18.416 34.0007C18.416 45.0907 20.8016 54.9208 24.4173 61.0171C27.073 65.4963 30.4565 68.0014 34.0002 68.0014C36.6994 68.0014 39.2886 66.5771 41.5371 63.924C44.5621 60.3532 47.021 54.4619 48.3855 47.2604C48.5308 46.4919 48.0257 45.7506 47.2573 45.604C46.4888 45.4601 45.7474 45.9651 45.6008 46.7336V46.7323Z" fill="white"/>
</g>
<defs>
<clipPath id="clip0_2281_3110">
<rect width="68" height="68" fill="white"/>
</clipPath>
</defs>
</svg>
