<svg width="40" height="30" viewBox="0 0 40 30" fill="none" xmlns="http://www.w3.org/2000/svg">
<g clip-path="url(#clip0_2227_3620)">
<path d="M39.1613 20.727H39.0553V16.4022C39.0553 15.516 38.7526 14.673 38.2002 14.0148V5.0886C38.1935 2.2902 36.0493 0.0078 33.4198 0H6.58296C3.95406 0.0072 1.80991 2.2896 1.80314 5.0892V14.0148C1.25019 14.6724 0.946382 15.5148 0.944691 16.4016V20.7264H0.838723C0.37596 20.7264 0 21.1272 0 21.6192V24.7122C0 25.2042 0.376524 25.6044 0.838723 25.6044H1.80314V29.1042C1.80314 29.5968 2.17967 29.997 2.64187 29.997H5.14169C5.53118 29.997 5.87444 29.7036 5.95787 29.2992L6.79603 25.6038H33.2085L34.0466 29.301C34.1301 29.706 34.4733 29.9994 34.8623 29.9994H37.3621C37.8248 29.9994 38.2008 29.5986 38.2008 29.1066V25.6044H39.1618C39.6246 25.6044 40.0006 25.2036 40.0006 24.7116V21.6198C40.0006 21.1272 39.624 20.727 39.1618 20.727H39.1613ZM36.5228 25.6044V28.2126H35.533L34.9226 25.6044H36.5222H36.5228ZM5.08081 25.6044L4.47094 28.2126H3.48115V25.6044H5.08081ZM8.08229 11.169V7.914C8.08849 7.251 7.92221 6.6 7.60206 6.0312C7.54964 5.9304 7.53836 5.8104 7.57162 5.7006C7.60375 5.5944 7.67251 5.5074 7.76608 5.4564C7.84725 5.412 7.93856 5.3994 8.02649 5.4192C8.67977 5.9268 9.45142 6.2094 10.2608 6.2376H14.3293C14.3378 6.2376 14.3468 6.2376 14.3552 6.2376C15.101 6.2376 15.8365 5.973 16.4295 5.4906C16.5524 5.3976 16.7164 5.388 16.8483 5.4666C17.0354 5.5788 17.1031 5.8308 16.9999 6.0306C16.6798 6.5994 16.5135 7.2498 16.5197 7.9104V11.1684C16.5422 11.73 16.6612 12.2874 16.8675 12.8052H7.73564C7.94194 12.2874 8.06087 11.73 8.08286 11.169H8.08229ZM23.4859 11.169V7.914C23.4921 7.2504 23.3259 6.5994 23.0057 6.0312C22.9533 5.9304 22.942 5.8104 22.9753 5.7006C23.0074 5.5944 23.0762 5.5074 23.1697 5.4564C23.2509 5.412 23.3422 5.3994 23.4301 5.4192C24.0834 5.9268 24.8551 6.2094 25.6645 6.2376H29.7341C30.4905 6.2448 31.2346 5.979 31.8337 5.4906C31.9566 5.397 32.1206 5.388 32.2525 5.4666C32.4397 5.5788 32.5073 5.8308 32.4041 6.0306C32.084 6.5994 31.9177 7.2498 31.9239 7.9104V11.1684C31.9464 11.73 32.0654 12.2874 32.2717 12.8052H23.1387C23.345 12.2874 23.464 11.73 23.4859 11.169ZM36.5228 12.9198C36.2477 12.8436 35.9653 12.8052 35.679 12.8052H34.0889C34.0331 12.5136 33.9317 12.3072 33.8392 12.1206C33.7101 11.859 33.5985 11.6328 33.5985 11.1558V7.9056C33.5935 7.563 33.6786 7.227 33.8465 6.93C34.1244 6.423 34.2005 5.8308 34.0602 5.2632C33.9198 4.6956 33.5805 4.2198 33.1042 3.924C32.7891 3.7284 32.4301 3.6246 32.0648 3.624C31.4572 3.624 31.1218 3.8592 30.8265 4.0668C30.5339 4.272 30.2814 4.4496 29.7335 4.4496H25.6679C25.2767 4.4586 24.8923 4.323 24.5845 4.0668L24.5794 4.0626C23.6669 3.3366 22.3705 3.537 21.6884 4.5078C21.4241 4.884 21.2787 5.3502 21.2775 5.8206C21.2775 6.3516 21.4292 6.6594 21.5627 6.9312C21.6946 7.1994 21.8085 7.431 21.8085 7.9092V11.1546C21.8085 11.6316 21.6969 11.8578 21.5684 12.1194C21.4765 12.306 21.3745 12.5124 21.3192 12.804H18.687C18.6312 12.5124 18.5297 12.306 18.4373 12.1194C18.3082 11.8578 18.1966 11.6316 18.1966 11.1546V7.9056C18.1915 7.563 18.2766 7.227 18.4446 6.93C19.0184 5.8836 18.6858 4.5348 17.7022 3.924C17.3872 3.7284 17.0281 3.6246 16.6629 3.624C16.0552 3.624 15.7199 3.8592 15.4245 4.0668C15.132 4.272 14.8794 4.4496 14.3316 4.4496H10.2642C9.87304 4.4586 9.48862 4.323 9.18086 4.0668L9.17579 4.0626C8.26323 3.3366 6.96681 3.537 6.28479 4.5078C6.02043 4.884 5.87501 5.3502 5.87388 5.8206C5.87388 6.3516 6.02551 6.6594 6.15909 6.9312C6.29099 7.1994 6.40485 7.431 6.40485 7.9092V11.1546C6.40485 11.6316 6.29324 11.8578 6.16473 12.1194C6.07285 12.306 5.97083 12.5124 5.91559 12.804H4.32551C4.03861 12.804 3.75622 12.8424 3.48115 12.9186V5.0892C3.48735 3.2742 4.87959 1.7928 6.58409 1.7868H33.4193C35.1249 1.7928 36.5172 3.2748 36.5228 5.0892V12.9198ZM2.62665 20.7264V16.4028C2.63003 15.4074 3.39322 14.595 4.3272 14.5914H35.675C36.6102 14.595 37.3739 15.4074 37.3773 16.4016V20.7264H2.62665ZM38.3248 22.5126V23.8188H1.67857V22.5126H38.3254H38.3248Z" fill="black"/>
</g>
<defs>
<clipPath id="clip0_2227_3620">
<rect width="40" height="30" fill="white"/>
</clipPath>
</defs>
</svg>
