<svg width="36" height="32" viewBox="0 0 36 32" fill="none" xmlns="http://www.w3.org/2000/svg">
<path d="M33.325 12.7231L30.7293 3.71312C30.1822 1.75767 28.3717 0.391602 26.3255 0.391602H9.67574C7.63015 0.391602 5.81901 1.7558 5.27198 3.70938L2.67561 12.7193C1.3121 13.757 0.5 15.384 0.5 17.0891V29.611C0.5 30.7124 1.40338 31.6083 2.51307 31.6083H8.17219C9.28251 31.6083 10.1853 30.7124 10.1853 29.611V25.6602H25.8147V29.611C25.8147 30.7124 26.7181 31.6083 27.8278 31.6083H33.4869C34.5972 31.6083 35.5 30.7124 35.5 29.611V17.0891C35.5 15.3828 34.6885 13.757 33.325 12.7224V12.7231ZM8.31597 25.6614V29.6123C8.31597 29.6884 8.25034 29.7527 8.17219 29.7527H2.51307C2.43493 29.7527 2.36928 29.6884 2.36928 29.6123V25.6614H8.31536H8.31597ZM4.71933 12.3572L7.075 4.20698C7.39822 3.05381 8.46726 2.24841 9.67574 2.24841H26.3217C27.529 2.24841 28.5999 3.05381 28.9263 4.20698L31.2819 12.3572H4.71933ZM33.6345 17.0897V23.8046H2.3699V17.0897C2.3699 15.9534 2.89067 14.9095 3.80218 14.2146H32.2028C33.1012 14.9039 33.6351 15.9728 33.6351 17.0897H33.6345ZM27.6846 25.6614H33.6307V29.6123C33.6307 29.6884 33.5651 29.7527 33.4869 29.7527H27.8278C27.7497 29.7527 27.684 29.6884 27.684 29.6123V25.6614H27.6846Z" fill="black"/>
<path d="M29.1463 16.0002C27.3095 16.0002 25.8147 17.4824 25.8147 19.3037C25.8147 21.1249 27.3089 22.6071 29.1463 22.6071C30.9837 22.6071 32.4773 21.1249 32.4773 19.3037C32.4773 17.4824 30.9831 16.0002 29.1463 16.0002ZM30.608 19.3037C30.608 20.1016 29.9522 20.7503 29.1463 20.7503C28.3405 20.7503 27.6846 20.101 27.6846 19.3037C27.6846 18.5064 28.3405 17.857 29.1463 17.857C29.9522 17.857 30.608 18.5064 30.608 19.3037Z" fill="black"/>
<path d="M21.556 18.3752H14.6947C14.1789 18.3752 13.76 18.7917 13.76 19.3036C13.76 19.8156 14.1795 20.2321 14.6947 20.2321H21.556C22.0718 20.2321 22.4907 19.8156 22.4907 19.3036C22.4907 18.7917 22.0712 18.3752 21.556 18.3752Z" fill="black"/>
<path d="M6.85432 16.0002C5.01754 16.0002 3.52274 17.5717 3.52274 19.3936C3.52274 21.2154 5.01692 22.6077 6.85432 22.6077C8.69172 22.6077 10.1859 21.1255 10.1859 19.3043C10.1859 17.4831 8.69172 16.0009 6.85432 16.0009V16.0002ZM8.31598 19.3043C8.31598 20.1022 7.66017 20.7509 6.85432 20.7509C6.04846 20.7509 5.39266 20.1016 5.39266 19.3043C5.39266 18.507 6.04846 17.8577 6.85432 17.8577C7.66017 17.8577 8.31598 18.507 8.31598 19.3043Z" fill="black"/>
</svg>
