<svg width="26" height="36" viewBox="0 0 26 36" fill="none" xmlns="http://www.w3.org/2000/svg">
<path d="M14.1693 10.5234C12.1798 10.2097 10.1889 10.6938 8.56231 11.8851C6.93569 13.0765 5.86859 14.8331 5.55628 16.8308C5.24464 18.8284 5.72591 20.8288 6.91202 22.4632C8.09812 24.097 9.84703 25.1695 11.8359 25.4825H11.8418C12.2133 25.54 12.5881 25.5684 12.9648 25.5684C13.3416 25.5684 13.738 25.5387 14.124 25.4792C18.2464 24.838 21.0821 20.9463 20.4437 16.7984C19.923 13.5539 17.4015 11.0325 14.1687 10.5234H14.1693ZM13.8235 23.5212C13.2594 23.6083 12.6926 23.6097 12.1377 23.5251C10.6702 23.2933 9.38087 22.5022 8.50576 21.2963C7.62999 20.0898 7.27429 18.6132 7.50507 17.1385C7.73519 15.6632 8.52351 14.3662 9.72474 13.4866C10.926 12.6069 12.3961 12.2496 13.8643 12.4808C16.2509 12.8565 18.1129 14.7188 18.4969 17.1075C18.9683 20.1697 16.8716 23.047 13.8248 23.5212H13.8235Z" fill="black"/>
<path d="M22.1525 4.36592C19.708 1.87361 16.4567 0.50066 12.9984 0.5C5.86399 0.5 0.0597153 6.41247 0.0597153 13.6794C0.0597153 17.0665 1.59626 21.2323 4.62726 26.061C7.55109 30.7194 10.7011 34.1515 11.302 34.7907C11.7163 35.2339 12.2758 35.4855 12.8767 35.5C12.8951 35.5 12.9135 35.5 12.932 35.5C13.5125 35.5 14.0615 35.2768 14.4823 34.868L14.5066 34.8436C14.531 34.8185 14.5546 34.794 14.5776 34.7696L14.5855 34.761C16.0254 33.1668 18.8072 29.923 21.2597 26.1073C24.3656 21.2739 25.9403 17.093 25.9403 13.6801C25.9383 10.1622 24.5931 6.85427 22.1525 4.36592ZM19.6021 25.0328C17.2286 28.7257 14.5296 31.8738 13.1292 33.4244C13.1213 33.4323 13.1134 33.4409 13.1055 33.4488C13.0411 33.5083 12.9721 33.5201 12.9241 33.5188C12.8748 33.5175 12.8031 33.5017 12.7373 33.4323C11.1357 31.7272 8.48735 28.4966 6.2953 25.0044C3.50625 20.5607 2.03151 16.6446 2.03151 13.6794C2.03151 7.50476 6.95081 2.48117 12.9977 2.48117C19.0426 2.48315 23.9639 7.50674 23.9672 13.6807C23.9672 16.706 22.4984 20.5257 19.6021 25.0335V25.0328Z" fill="black"/>
</svg>
