<svg width="32" height="32" viewBox="0 0 32 32" fill="none" xmlns="http://www.w3.org/2000/svg">
<path d="M16.9614 16.8268L28.0653 10.3598V21.6806L20.2799 17.3501C19.5683 17.0513 18.7817 17.5733 18.7817 18.3441C18.7817 18.7861 19.052 19.1833 19.4639 19.3464L27.0527 23.4121L17.0037 29.1768L16.9806 16.8064L16.9614 16.8268ZM3.95452 10.3605L14.9944 16.8275L15.0175 29.1979L4.98703 23.4332L12.6853 19.1852C13.094 19.0209 13.3617 18.6249 13.3617 18.1848C13.3617 17.4128 12.5733 16.8908 11.861 17.1914L3.95452 21.6818V10.3611V10.3605ZM4.94796 8.60846L16.0109 2.23935L27.0918 8.60846L15.9878 15.0754L4.94796 8.60846ZM1.96765 8.56176V23.4384C1.96765 23.7831 2.15276 24.1017 2.45316 24.2718L15.5158 31.8659C15.8104 32.0335 16.1717 32.0335 16.4663 31.8659L29.5468 24.2712C29.8472 24.1004 30.0324 23.7819 30.0324 23.4371V8.56112C30.0324 8.21634 29.8472 7.89843 29.5475 7.72764L16.4669 0.13423C16.1717 -0.0340011 15.8098 -0.0340011 15.5145 0.13423L2.45252 7.72892C2.15276 7.89971 1.96829 8.21762 1.96829 8.5624L1.96765 8.56176Z" fill="black"/>
<path d="M0.000602722 0.00878906V5.06595C0.000602722 5.60838 0.441275 6.04847 0.98443 6.04847C1.52758 6.04847 1.96826 5.60838 1.96826 5.06595V2.04227H4.80637C5.36874 2.04227 5.82414 1.58683 5.82414 1.02585C5.82414 0.464228 5.3681 0.00942874 4.80637 0.00942874H0.000602722V0.00878906Z" fill="black"/>
<path d="M26.1758 0.991308V1.08022C26.1758 1.62265 26.6159 2.06274 27.1596 2.06274H30.0323V5.06659C30.0323 5.60902 30.4724 6.04911 31.0162 6.04911C31.5593 6.04911 32 5.60966 32 5.06659V0.00878906H27.1603C26.6171 0.00878906 26.1765 0.448236 26.1765 0.991308H26.1758Z" fill="black"/>
<path d="M0.000640512 26.9347V31.9919H4.84035C5.38351 31.9919 5.82418 31.5518 5.82418 31.0093V30.9204C5.82418 30.378 5.38351 29.9379 4.84035 29.9379H1.96765V26.9341C1.96765 26.3916 1.52698 25.9515 0.983827 25.9515C0.440673 25.9515 0 26.3916 0 26.9341L0.000640512 26.9347Z" fill="black"/>
<path d="M30.0323 26.9348V29.9386H27.1596C26.6165 29.9386 26.1758 30.3781 26.1758 30.9211V30.9902C26.1758 31.5326 26.6159 31.9727 27.1596 31.9727H31.9994V26.9354C31.9994 26.393 31.5593 25.9529 31.0155 25.9529C30.4724 25.9529 30.0317 26.3923 30.0317 26.9354L30.0323 26.9348Z" fill="black"/>
</svg>
