<svg width="36" height="22" viewBox="0 0 36 22" fill="none" xmlns="http://www.w3.org/2000/svg">
<g clip-path="url(#clip0_2234_1728)">
<path d="M11.6808 11.2547H3.46177L1.7576 0.763904C1.72186 0.527003 1.59726 0.317883 1.40664 0.175439C1.21602 0.0329951 0.983205 -0.0255988 0.75039 0.0107698C0.268874 0.0860327 -0.0632226 0.546197 0.00974937 1.03667L1.81816 12.2231V21.101C1.81816 21.5971 2.21479 22.0007 2.70177 22.0007C3.18875 22.0007 3.58587 21.5971 3.58587 21.101V17.2288H10.7962V21.101C10.7962 21.5971 11.1928 22.0007 11.6803 22.0007C12.1678 22.0007 12.5644 21.5971 12.5644 21.101V12.1544C12.5644 11.6583 12.1678 11.2547 11.6803 11.2547H11.6808ZM10.7967 15.4301H3.58637V13.054H10.7967V15.4301Z" fill="black"/>
<path d="M35.2504 0.010641H35.2499C35.0156 -0.0262327 34.7823 0.0323612 34.5917 0.17531C34.4016 0.317754 34.278 0.526369 34.2427 0.76327L32.5534 11.2546H24.3344C23.8469 11.2546 23.4503 11.6582 23.4503 12.1542V21.1009C23.4503 21.5969 23.8469 22.0005 24.3344 22.0005C24.8219 22.0005 25.218 21.5969 25.218 21.1009V17.2287H32.4283V21.1009C32.4283 21.5969 32.825 22.0005 33.3124 22.0005C33.7999 22.0005 34.1965 21.5969 34.1965 21.1009V12.2244L34.2 12.2022L35.9906 1.03603C36.0635 0.545058 35.7314 0.0848937 35.2509 0.010641H35.2504ZM32.4283 15.4299H25.218V13.0539H32.4283V15.4299Z" fill="black"/>
<path d="M19.9854 20.2013H18.8913V8.81643C18.8913 8.75581 18.8853 8.69469 18.8729 8.63458L18.8019 8.28201H26.873C27.3605 8.28201 27.7571 7.87842 27.7571 7.3829C27.7571 6.88737 27.3605 6.48328 26.873 6.48328H9.14185C8.65437 6.48328 8.25774 6.88687 8.25774 7.3829C8.25774 7.87892 8.65437 8.28201 9.14185 8.28201H17.2268L17.1474 8.64014C17.1315 8.71086 17.1236 8.78107 17.1236 8.84774V20.2018H16.029C15.5415 20.2018 15.1454 20.6054 15.1454 21.1009C15.1454 21.5965 15.542 22.0006 16.029 22.0006H19.9854C20.4729 22.0006 20.8695 21.597 20.8695 21.1009C20.8695 20.6049 20.4729 20.2018 19.9854 20.2018V20.2013Z" fill="black"/>
</g>
<defs>
<clipPath id="clip0_2234_1728">
<rect width="36" height="22" fill="white"/>
</clipPath>
</defs>
</svg>
