<svg xmlns="http://www.w3.org/2000/svg" width="47" height="50" viewBox="0 0 47 50" fill="none">
  <g clip-path="url(#clip0_2624_1973)">
    <path d="M35.6459 49.9995C41.6371 49.9995 46.4949 45.0557 46.4949 38.9563C46.4949 32.8569 41.638 27.9131 35.6459 27.9131C29.6538 27.9131 24.7969 32.8569 24.7969 38.9563C24.7969 45.0557 29.6538 49.9995 35.6459 49.9995ZM36.7437 31.5299L41.3931 36.2625C41.9993 36.8796 41.9993 37.8795 41.3931 38.4966C40.7868 39.1137 39.8045 39.1137 39.1983 38.4966L37.1963 36.4552V45.267C37.1963 46.1378 36.5023 46.8442 35.6468 46.8442C34.7913 46.8442 34.0973 46.1378 34.0973 45.267V36.4552L32.0953 38.4966C31.489 39.1137 30.5067 39.1137 29.9005 38.4966C29.2942 37.8795 29.2942 36.8796 29.9005 36.2625L34.5498 31.5299C35.1543 30.9128 36.1358 30.9119 36.7411 31.5273C36.742 31.5281 36.7429 31.529 36.7437 31.5299Z" fill="black"/>
    <path d="M0.495117 3.15534C0.495117 1.41278 1.88306 0 3.59496 0H35.1606C36.8725 0 38.2604 1.41278 38.2604 3.15534V23.4312C38.2604 24.1632 37.6768 24.7573 36.9576 24.7573C36.2384 24.7573 35.6548 24.1632 35.6548 23.4312V2.6735L3.08426 2.7124V46.8836L16.4868 46.8447V38.9568C16.4868 38.0859 17.1808 37.3795 18.0363 37.3795H21.6981V49.5137H3.59496C1.88306 49.5137 0.495117 48.101 0.495117 46.3584V3.15534Z" fill="black"/>
    <path d="M29.17 8.48139V9.4866H28.1825V8.48139H29.17ZM19.8713 8.48139V9.4866H18.8838V8.48139H19.8713ZM10.5727 8.48139V9.4866H9.58513V8.48139H10.5727ZM29.17 17.9465V18.9517H28.1825V17.9465H29.17ZM19.8713 17.9465V18.9517H18.8838V17.9465H19.8713ZM10.5727 17.9465V18.9517H9.58513V17.9465H10.5727ZM19.8713 27.4116V28.4168H18.8838V27.4116H19.8713ZM10.5727 27.4116V28.4168H9.58513V27.4116H10.5727ZM30.2262 5.8291H27.1263C26.2708 5.8291 25.5768 6.53549 25.5768 7.40633V10.5617C25.5768 11.4325 26.2708 12.1389 27.1263 12.1389H30.2262C31.0817 12.1389 31.7756 11.4325 31.7756 10.5617V7.40633C31.7756 6.53549 31.0817 5.8291 30.2262 5.8291ZM20.9275 5.8291H17.8276C16.9721 5.8291 16.2782 6.53549 16.2782 7.40633V10.5617C16.2782 11.4325 16.9721 12.1389 17.8276 12.1389H20.9275C21.783 12.1389 22.477 11.4325 22.477 10.5617V7.40633C22.477 6.53549 21.783 5.8291 20.9275 5.8291ZM11.6288 5.8291H8.52898C7.67346 5.8291 6.97949 6.53549 6.97949 7.40633V10.5617C6.97949 11.4325 7.67346 12.1389 8.52898 12.1389H11.6288C12.4843 12.1389 13.1783 11.4325 13.1783 10.5617V7.40633C13.1783 6.53549 12.4843 5.8291 11.6288 5.8291ZM30.2262 15.2942H27.1263C26.2708 15.2942 25.5768 16.0006 25.5768 16.8714V20.0268C25.5768 20.8976 26.2708 21.604 27.1263 21.604H30.2262C31.0817 21.604 31.7756 20.8976 31.7756 20.0268V16.8714C31.7756 16.0006 31.0817 15.2942 30.2262 15.2942ZM20.9275 15.2942H17.8276C16.9721 15.2942 16.2782 16.0006 16.2782 16.8714V20.0268C16.2782 20.8976 16.9721 21.604 17.8276 21.604H20.9275C21.783 21.604 22.477 20.8976 22.477 20.0268V16.8714C22.477 16.0006 21.783 15.2942 20.9275 15.2942ZM11.6288 15.2942H8.52898C7.67346 15.2942 6.97949 16.0006 6.97949 16.8714V20.0268C6.97949 20.8976 7.67346 21.604 8.52898 21.604H11.6288C12.4843 21.604 13.1783 20.8976 13.1783 20.0268V16.8714C13.1783 16.0006 12.4843 15.2942 11.6288 15.2942ZM20.9275 24.7593H17.8276C16.9721 24.7593 16.2782 25.4657 16.2782 26.3366V29.4919C16.2782 30.3627 16.9721 31.0691 17.8276 31.0691H20.9275C21.783 31.0691 22.477 30.3627 22.477 29.4919V26.3366C22.477 25.4657 21.783 24.7593 20.9275 24.7593ZM11.6288 24.7593H8.52898C7.67346 24.7593 6.97949 25.4657 6.97949 26.3366V29.4919C6.97949 30.3627 7.67346 31.0691 8.52898 31.0691H11.6288C12.4843 31.0691 13.1783 30.3627 13.1783 29.4919V26.3366C13.1783 25.4657 12.4843 24.7593 11.6288 24.7593Z" fill="black"/>
  </g>
  <defs>
    <clipPath id="clip0_2624_1973">
      <rect width="46" height="50" fill="white" transform="translate(0.495117)"/>
    </clipPath>
  </defs>
</svg>