<svg width="40" height="26" viewBox="0 0 40 26" fill="none" xmlns="http://www.w3.org/2000/svg">
<g clip-path="url(#clip0_2326_3600)">
<mask id="mask0_2326_3600" style="mask-type:luminance" maskUnits="userSpaceOnUse" x="0" y="0" width="40" height="27">
<path d="M39.4694 0.0012207H0.5V26.0007H39.4694V0.0012207Z" fill="white"/>
</mask>
<g mask="url(#mask0_2326_3600)">
<path fill-rule="evenodd" clip-rule="evenodd" d="M36.1387 24.3293H3.83453V17.2912H36.1387V24.3293ZM37.7734 22.5941V20.8032V22.5941ZM37.7734 12.0945H38.6524C39.1207 12.0945 39.5003 11.7201 39.5003 11.2578C39.5003 10.796 39.1207 10.4217 38.6524 10.4217H18.2871C17.8273 10.4305 17.4619 10.8049 17.4698 11.2578V15.6273H14.019V13.851C14.0269 13.3981 13.6615 13.0242 13.2022 13.0164H10.6216V11.249C10.6216 10.8038 10.2556 10.443 9.80423 10.443C9.35285 10.443 8.9869 10.8038 8.9869 11.249V15.6184H7.21987V8.61417H11.5022C11.8138 8.61001 12.0959 8.43061 12.2288 8.1519C12.3659 7.86799 12.3364 7.53311 12.1524 7.27624L7.06379 0.333856C6.80857 -0.0223372 6.30868 -0.106576 5.94747 0.145099C5.87312 0.196578 5.80879 0.260537 5.75606 0.333856L0.665384 7.27676C0.479243 7.53259 0.449187 7.86851 0.587342 8.15242C0.720225 8.43061 1.00234 8.60949 1.31398 8.61469H5.58521V15.6205H3.01561C2.5558 15.6293 2.19037 16.0037 2.19828 16.4567V25.1654C2.19037 25.6184 2.5558 25.9922 3.01509 26H36.9555C37.4148 25.9922 37.7808 25.6189 37.7729 25.166V12.0945H37.7734ZM33.9599 15.6278H36.1392V12.0856H33.9599V15.6278ZM28.4442 15.6278H32.3252V12.0856H28.4405L28.4442 15.6278ZM22.929 15.6278H26.81V12.0856H22.9253L22.929 15.6278ZM21.2944 15.6278H19.115V12.0856H21.2944V15.6278ZM12.3812 14.6856H10.6216V15.6169H12.3812V14.6856ZM9.86593 6.94188H2.9555L6.40623 2.23026L9.86593 6.94188Z" fill="black"/>
</g>
</g>
<defs>
<clipPath id="clip0_2326_3600">
<rect width="39" height="26" fill="white" transform="translate(0.5)"/>
</clipPath>
</defs>
</svg>
